<svg width="100" height="133" viewBox="0 0 100 133" fill="none" xmlns="http://www.w3.org/2000/svg">
<path d="M20.5274 123.722C31.8646 125.395 42.384 117.745 44.0233 106.635L46.9915 86.5199L26.4638 83.4909C15.1266 81.818 4.60714 89.4679 2.96786 100.577C1.32859 111.687 9.19026 122.049 20.5274 123.722Z" fill="#0ACF83"/>
<path d="M8.90414 60.3467C10.5434 49.2372 21.0629 41.5873 32.4 43.2602L52.9278 46.2892L46.9914 86.5202L26.4637 83.4912C15.1265 81.8184 7.26487 71.4562 8.90414 60.3467Z" fill="#A259FF"/>
<path d="M14.8404 20.1155C16.4797 9.00602 26.9992 1.35613 38.3363 3.02899L58.864 6.05799L52.9277 46.289L32.4 43.26C21.0628 41.5872 13.2011 31.225 14.8404 20.1155Z" fill="#F24E1E"/>
<path d="M58.8621 6.05762L79.3898 9.08661C90.7269 10.7595 98.5886 21.1216 96.9493 32.2311C95.3101 43.3406 84.7906 50.9905 73.4534 49.3177L52.9257 46.2887L58.8621 6.05762Z" fill="#FF7262"/>
<path d="M91.0131 72.4623C89.3738 83.5718 78.8543 91.2217 67.5172 89.5489C56.18 87.876 48.3183 77.5139 49.9576 66.4043C51.5969 55.2948 62.1164 47.6449 73.4535 49.3178C84.7907 50.9907 92.6523 61.3528 91.0131 72.4623Z" fill="#1ABCFE"/>
</svg>
