<svg width="140" height="175" viewBox="0 0 140 175" fill="none" xmlns="http://www.w3.org/2000/svg">
<path d="M114.1 29.8984L127.523 141.974L85.9696 163.536L39.3713 160.617L6.31714 52.6711L114.1 29.8984Z" fill="#E44D26"/>
<path d="M84.0591 154.169L117.636 136.746L106.166 40.9716L62.1091 50.28L84.0591 154.169Z" fill="#F16529"/>
<path d="M48.7228 81.3002L67.8112 77.2672L64.9603 63.7739L31.1255 70.9226L32.2131 74.4744L43.3861 110.958L73.5815 104.578L70.7306 91.0845L52.8754 94.857L48.7228 81.3002ZM58.9597 114.715L45.4145 117.577L51.7811 138.364L81.0423 140.197L81.1009 140.167L78.1347 126.128L78.0789 126.156L62.1942 125.274L58.9597 114.715Z" fill="#EBEBEB"/>
<path d="M10.0278 20.6541L16.885 19.2053L18.3163 25.98L24.5892 24.6547L23.1578 17.8799L30.0153 16.431L34.3499 36.9466L27.4928 38.3954L26.0413 31.5256L19.7685 32.851L21.22 39.7208L14.3629 41.1696L10.0283 20.654L10.0278 20.6541ZM40.4697 21.3294L34.4339 22.6046L32.9965 15.8012L51.9302 11.8008L53.3677 18.6042L47.3281 19.8803L50.2253 33.5924L43.3681 35.0412L40.471 21.3291L40.4706 21.3292L40.4697 21.3294ZM54.935 11.1659L62.085 9.65525L68.0062 15.9346L70.8771 7.79762L78.03 6.28634L82.3646 26.8019L75.5354 28.2448L73.3869 18.0762L70.2105 26.3674L70.0922 26.3923L63.8304 20.0953L65.9789 30.264L59.2696 31.6815L54.935 11.1659ZM81.4425 5.56533L88.3017 4.11609L91.2036 17.8506L100.847 15.8132L102.279 22.5943L85.7767 26.081L81.4421 5.56542L81.4425 5.56533Z" fill="black"/>
<path d="M73.5349 104.588L90.1505 101.077L92.2813 118.908L78.0901 126.149L81.0561 140.187L107.099 126.676L106.82 124.354L102.485 88.1602L102.049 84.4673L70.684 91.0942L73.5349 104.588ZM67.7577 77.2439L67.7647 77.2769L100.357 70.3906L99.987 67.3008L99.1568 60.3302L98.7144 56.6421L64.9138 63.7836L67.7578 77.2444L67.7577 77.2439Z" fill="white"/>
</svg>
