<svg width="208" height="206" viewBox="0 0 208 206" fill="none" xmlns="http://www.w3.org/2000/svg">
<g clip-path="url(#clip0_208_2103)">
<path d="M27.4286 43.3984L127.462 9.33889C131.064 8.10872 134.876 7.61092 138.681 7.87398C142.486 8.13704 146.209 9.15579 149.636 10.8719C153.063 12.5881 156.128 14.9679 158.655 17.8753C161.182 20.7826 163.121 24.1604 164.361 27.8152L197.564 125.332C198.811 128.985 199.336 132.844 199.109 136.689C198.881 140.534 197.905 144.29 196.237 147.741C194.569 151.192 192.242 154.271 189.388 156.801C186.534 159.331 183.21 161.263 179.606 162.486L79.5724 196.546C75.9706 197.776 72.1582 198.274 68.3534 198.011C64.5485 197.748 60.8259 196.729 57.3986 195.013C53.9713 193.297 50.9066 190.917 48.3798 188.01C45.8531 185.102 43.9139 181.724 42.6732 178.07L9.47058 80.5526C8.22316 76.9 7.69826 73.0407 7.92592 69.1955C8.15358 65.3504 9.12933 61.5948 10.7973 58.1438C12.4653 54.6928 14.7928 51.6141 17.6466 49.0839C20.5004 46.5537 23.8245 44.6217 27.4286 43.3984Z" fill="#F7DF1E"/>
<path d="M145.111 137.054C149.946 141.028 155.265 143.348 162.444 140.904C168.475 138.851 171.313 134.559 169.911 130.441C168.231 125.506 163.677 125.106 156.062 124.495L151.898 124.19C139.888 123.342 131.024 120.175 127.034 108.458C123.359 97.6651 128.879 86.6167 141.878 82.1909C151.132 79.0401 158.869 79.9594 166.502 86.6651L157.618 97.7196C153.616 94.145 150.33 93.3187 146.151 94.7417C141.888 96.1933 140.096 99.7873 141.286 103.28C142.756 107.598 146.055 108.425 153.21 108.973L157.374 109.275C171.526 110.308 180.328 113.276 184.42 125.294C188.832 138.251 180.954 148.854 167.13 153.561C153.613 158.164 142.711 154.768 135.596 147.875L145.111 137.054ZM94.119 155.807C97.7712 159.039 101.006 161.722 106.007 160.02C110.788 158.392 113.175 155.514 110.726 148.321L94.065 99.3871L108.62 94.4315L125.347 143.56C130.421 158.462 123.894 168.253 110.996 172.644C99.3425 176.612 90.5634 172.947 84.6859 166.933L94.119 155.807Z" fill="black"/>
</g>
<defs>
<clipPath id="clip0_208_2103">
<rect width="163.623" height="161.781" fill="white" transform="translate(0 52.7373) rotate(-18.8027)"/>
</clipPath>
</defs>
</svg>
