<svg width="129" height="123" viewBox="0 0 129 123" fill="none" xmlns="http://www.w3.org/2000/svg">
<path d="M73.7859 10.5582C46.1293 5.15861 45.6755 16.6665 45.6755 16.6665L43.4469 28.2452L69.8388 33.3979L69.1604 36.8726L32.2857 29.6733C32.2857 29.6733 14.9533 24.3487 9.87884 50.3399C4.80441 76.331 20.4311 78.4251 20.4311 78.4251L29.6497 80.2249L32.0045 68.164C32.0045 68.164 34.3164 53.6801 50.0134 56.7447C65.7103 59.8093 76.1895 61.8552 76.1895 61.8552C76.1895 61.8552 90.853 64.9479 93.4808 51.4882C96.1086 38.0286 97.8259 29.233 97.8259 29.233C97.8259 29.233 102.688 16.201 73.7859 10.5582ZM57.7139 15.4991C60.3397 16.0118 62.0761 18.4028 61.5986 20.8485C61.1211 23.2941 58.6129 24.8564 55.9871 24.3438C53.3613 23.8311 51.625 21.4401 52.1024 18.9945C52.5799 16.5488 55.0881 14.9865 57.7139 15.4991Z" fill="url(#paint0_linear_208_2108)"/>
<path d="M54.8637 111.652C82.5202 117.052 82.9741 105.544 82.9741 105.544L85.2026 93.9649L58.8107 88.8122L59.4891 85.3375L96.3638 92.5368C96.3638 92.5368 113.696 97.8614 118.771 71.8702C123.845 45.8791 108.218 43.785 108.218 43.785L98.9998 41.9852L96.6451 54.0461C96.6451 54.0461 94.3331 68.5301 78.6362 65.4654C62.9392 62.4008 52.46 60.3549 52.46 60.3549C52.46 60.3549 37.7965 57.2622 35.1687 70.7219C32.5409 84.1815 30.8237 92.9771 30.8237 92.9771C30.8237 92.9771 25.9613 106.009 54.8637 111.652ZM70.9356 106.711C68.3098 106.198 66.5734 103.807 67.0509 101.362C67.5284 98.916 70.0366 97.3537 72.6624 97.8663C75.2882 98.379 77.0246 100.77 76.5471 103.216C76.0696 105.661 73.5614 107.224 70.9356 106.711Z" fill="url(#paint1_linear_208_2108)"/>
<defs>
<linearGradient id="paint0_linear_208_2108" x1="28.4541" y1="10.8671" x2="67.9657" y2="74.5362" gradientUnits="userSpaceOnUse">
<stop stop-color="#387EB8"/>
<stop offset="1" stop-color="#366994"/>
</linearGradient>
<linearGradient id="paint1_linear_208_2108" x1="55.3393" y1="49.3617" x2="98.4263" y2="115.345" gradientUnits="userSpaceOnUse">
<stop stop-color="#FFE052"/>
<stop offset="1" stop-color="#FFC331"/>
</linearGradient>
</defs>
</svg>
