<svg width="78" height="69" viewBox="0 0 78 69" fill="none" xmlns="http://www.w3.org/2000/svg">
<g clip-path="url(#clip0_208_2068)">
<path d="M39 41.4123C42.8396 41.4123 45.9522 38.3175 45.9522 34.5C45.9522 30.6824 42.8396 27.5876 39 27.5876C35.1604 27.5876 32.0479 30.6824 32.0479 34.5C32.0479 38.3175 35.1604 41.4123 39 41.4123Z" fill="#FFE2A0"/>
<path fill-rule="evenodd" clip-rule="evenodd" d="M5.716 30.187C4.02918 31.701 3.32056 33.1613 3.32056 34.5002C3.32056 35.839 4.02918 37.2993 5.716 38.8133C7.40263 40.3271 9.93448 41.7645 13.2014 43.0047C19.724 45.4809 28.8447 47.0463 38.9999 47.0463C49.1551 47.0463 58.2758 45.4809 64.7984 43.0047C68.0653 41.7645 70.5972 40.3271 72.2838 38.8133C73.9706 37.2993 74.6793 35.839 74.6793 34.5002C74.6793 33.1613 73.9706 31.701 72.2838 30.187C70.5972 28.6732 68.0653 27.2359 64.7984 25.9956C58.2758 23.5195 49.1551 21.954 38.9999 21.954C28.8447 21.954 19.724 23.5195 13.2014 25.9956C9.93448 27.2359 7.40263 28.6732 5.716 30.187ZM12.0421 22.9768C19.021 20.3275 28.5525 18.7227 38.9999 18.7227C49.4473 18.7227 58.9788 20.3275 65.9577 22.9768C69.4416 24.2994 72.3728 25.9137 74.4616 27.7884C76.5502 29.663 77.9293 31.9284 77.9293 34.5002C77.9293 37.0719 76.5502 39.3373 74.4616 41.2119C72.3728 43.0866 69.4416 44.7009 65.9577 46.0235C58.9788 48.6729 49.4473 50.2776 38.9999 50.2776C28.5525 50.2776 19.021 48.6729 12.0421 46.0235C8.55825 44.7009 5.62701 43.0866 3.53824 41.2119C1.44964 39.3373 0.0705566 37.0719 0.0705566 34.5002C0.0705566 31.9284 1.44964 29.663 3.53824 27.7884C5.62701 25.9137 8.55825 24.2994 12.0421 22.9768Z" fill="#FFE2A0"/>
<path fill-rule="evenodd" clip-rule="evenodd" d="M26.1149 3.68407C23.9527 2.98862 22.3265 3.10857 21.1603 3.77801C19.9941 4.44746 19.0765 5.78775 18.6012 7.99719C18.126 10.2064 18.1399 13.1051 18.6931 16.5383C19.7977 23.3927 22.9945 32.0289 28.0721 40.7731C33.1497 49.5174 39.0735 56.5881 44.4917 60.9664C47.2054 63.1593 49.7233 64.6207 51.8851 65.3161C54.0473 66.0115 55.6735 65.8916 56.8397 65.2221C58.0059 64.5527 58.9234 63.2124 59.3988 61.003C59.874 58.7937 59.8601 55.895 59.3069 52.4619C58.2023 45.6074 55.0055 36.9712 49.9279 28.227C44.8503 19.4828 38.9265 12.412 33.5083 8.03374C30.7946 5.84085 28.2767 4.37945 26.1149 3.68407ZM35.5581 5.52613C41.3552 10.2107 47.5188 17.6154 52.7425 26.6113C57.9662 35.6072 61.3342 44.6168 62.5159 51.9507C63.1059 55.6118 63.1654 58.9429 62.5769 61.6788C61.9883 64.4145 60.7047 66.7347 58.4647 68.0206C56.2246 69.3065 53.5619 69.2517 50.8848 68.3905C48.2075 67.5294 45.3358 65.8125 42.4419 63.474C36.6448 58.7895 30.4812 51.3847 25.2575 42.3888C20.0338 33.3929 16.6658 24.3834 15.4841 17.0494C14.8941 13.3884 14.8346 10.0572 15.4231 7.32131C16.0116 4.5856 17.2953 2.26546 19.5353 0.979568C21.7754 -0.306324 24.4381 -0.251513 27.1152 0.609589C29.7925 1.47076 32.6642 3.18761 35.5581 5.52613Z" fill="#FFE2A0"/>
<path fill-rule="evenodd" clip-rule="evenodd" d="M59.3986 7.99728C58.9233 5.78784 58.0057 4.44755 56.8395 3.77811C55.6733 3.10866 54.0471 2.98871 51.885 3.68417C49.7231 4.37955 47.2052 5.84094 44.4915 8.03384C39.0734 12.4121 33.1495 19.4829 28.0719 28.2271C22.9943 36.9713 19.7975 45.6075 18.693 52.462C18.1398 55.8951 18.1258 58.7938 18.6011 61.003C19.0764 63.2125 19.994 64.5528 21.1602 65.2222C22.3264 65.8917 23.9526 66.0116 26.1147 65.3162C28.2766 64.6208 30.7945 63.1594 33.5082 60.9665C38.9263 56.5882 44.8502 49.5174 49.9278 40.7732C55.0054 32.029 58.2022 23.3928 59.3067 16.5383C59.8599 13.1052 59.8739 10.2065 59.3986 7.99728ZM62.5158 17.0495C61.334 24.3835 57.9661 33.393 52.7424 42.3889C47.5186 51.3848 41.3551 58.7896 35.558 63.4741C32.6641 65.8126 29.7924 67.5295 27.1151 68.3906C24.438 69.2517 21.7753 69.3066 19.5352 68.0207C17.2951 66.7348 16.0115 64.4146 15.423 61.6789C14.8344 58.943 14.894 55.6119 15.4839 51.9508C16.6657 44.6169 20.0336 35.6073 25.2574 26.6114C30.4811 17.6155 36.6446 10.2108 42.4417 5.52622C45.3356 3.1877 48.2073 1.47086 50.8846 0.609681C53.5618 -0.251421 56.2245 -0.306233 58.4645 0.979661C60.7046 2.26555 61.9882 4.5857 62.5767 7.3214C63.1653 10.0573 63.1057 13.3884 62.5158 17.0495Z" fill="#FFE2A0"/>
</g>
<defs>
<clipPath id="clip0_208_2068">
<rect width="78" height="69" fill="white"/>
</clipPath>
</defs>
</svg>
