<svg width="20" height="20" viewBox="0 0 20 20" fill="none" xmlns="http://www.w3.org/2000/svg">
<g id="Time Circle">
<path id="Fill 1" opacity="0.4" d="M19.9998 10C19.9998 15.524 15.5228 20 9.99976 20C4.47676 20 -0.000244141 15.524 -0.000244141 10C-0.000244141 4.478 4.47676 0 9.99976 0C15.5228 0 19.9998 4.478 19.9998 10Z" fill="#263039"/>
<path id="Fill 4" d="M13.5734 13.8143C13.4424 13.8143 13.3104 13.7803 13.1894 13.7093L9.26344 11.3673C9.03744 11.2313 8.89844 10.9863 8.89844 10.7223V5.67529C8.89844 5.26129 9.23444 4.92529 9.64844 4.92529C10.0624 4.92529 10.3984 5.26129 10.3984 5.67529V10.2963L13.9584 12.4193C14.3134 12.6323 14.4304 13.0923 14.2184 13.4483C14.0774 13.6833 13.8284 13.8143 13.5734 13.8143Z" fill="#263039"/>
</g>
</svg>
